# xmcd
#
# Track frame offsets:
#	150
#	32474
#	80554
#	110621
#	139513
#	166494
#	206208
#	228595
#	245328
#	268556
#	294775
#	312152
#
# Disc length: 4198 seconds
# Revision: 0
# Processed by: cddbd v1.5.1PL0 Copyright (c) Steve Scherf et al.
# Submitted via: cdrLabel 7.0
#
DISCID=a110640c
DTITLE=Ronnie Earl - Ronnie Earl - Now My Soul 
DYEAR=2004
DGENRE=
TTITLE0=Blues For J
TTITLE1=Double Trouble
TTITLE2=Feel Like Goin On
TTITLE3=Walkin On The Sea
TTITLE4=Black and White
TTITLE5=Kay Me Dear
TTITLE6=Maxwell, Mudcat And Per
TTITLE7=My Buddy Buddy Friends
TTITLE8=Walter Through Kim
TTITLE9=Number 7
TTITLE10=The Magic Of Sam
TTITLE11=Bonus Track
EXTD=
EXTT0=
EXTT1=
EXTT2=
EXTT3=
EXTT4=
EXTT5=
EXTT6=
EXTT7=
EXTT8=
EXTT9=
EXTT10=
EXTT11=
PLAYORDER=
